<svg xmlns="http://www.w3.org/2000/svg" width="20" height="20" viewBox="0 0 20 20">
    <path fill-rule="nonzero" d="M14.375 19.625c1.029 0 1.91-.368 2.646-1.104.736-.735 1.104-1.617 1.104-2.646 0-.547-.11-1.058-.332-1.533a3.964 3.964 0 0 0-.898-1.24c.898-.313 1.64-.866 2.226-1.66A4.426 4.426 0 0 0 20 8.745V2.75a.6.6 0 0 0-.186-.44.6.6 0 0 0-.439-.185c-.716 0-1.41.085-2.08.254-.67.17-1.305.407-1.904.713a8.432 8.432 0 0 0-1.67 1.123 9.444 9.444 0 0 0-1.377 1.465 2.606 2.606 0 0 0-.313-.616 2.267 2.267 0 0 0-.469-.498c.079-.625.293-1.24.645-1.845.352-.606.749-1.039 1.191-1.3a.591.591 0 0 0 .293-.39.645.645 0 0 0-.058-.468.591.591 0 0 0-.39-.293.645.645 0 0 0-.47.058c-.572.339-1.074.853-1.503 1.543a6.616 6.616 0 0 0-.88 2.168 2.02 2.02 0 0 0-.605-.03 3.334 3.334 0 0 0-.215.03 6.194 6.194 0 0 0-.869-2.168c-.436-.69-.94-1.204-1.514-1.543A.645.645 0 0 0 6.72.27c-.17.039-.3.136-.39.292a.645.645 0 0 0-.06.47c.04.169.137.299.293.39.443.26.84.7 1.192 1.318.351.619.566 1.24.644 1.865-.169.144-.319.306-.449.489a2.06 2.06 0 0 0-.293.586A9.444 9.444 0 0 0 6.28 4.215a8.432 8.432 0 0 0-1.67-1.123 9.027 9.027 0 0 0-1.904-.713 8.466 8.466 0 0 0-2.08-.254.6.6 0 0 0-.44.186A.6.6 0 0 0 0 2.75v5.996c0 1.003.293 1.901.879 2.695.586.795 1.328 1.348 2.226 1.66a3.964 3.964 0 0 0-.898 1.24 3.587 3.587 0 0 0-.332 1.534c0 1.029.368 1.91 1.104 2.646.735.736 1.617 1.104 2.646 1.104.52 0 1.01-.1 1.465-.303a3.9 3.9 0 0 0 1.191-.81c.156.325.388.592.694.8.306.209.647.313 1.025.313.378 0 .72-.104 1.025-.313.306-.208.537-.475.694-.8a3.9 3.9 0 0 0 1.191.81c.456.202.944.303 1.465.303zm-6.25-7.5H4.629c-.925 0-1.719-.332-2.383-.996-.664-.664-.996-1.458-.996-2.383V3.395a7.173 7.173 0 0 1 2.695.751c.834.424 1.56.97 2.178 1.641a7.686 7.686 0 0 1 1.465 2.315c.358.872.537 1.796.537 2.773v1.25zm7.246 0h-3.496v-1.25c0-.977.179-1.901.537-2.773a7.686 7.686 0 0 1 1.465-2.315 7.642 7.642 0 0 1 2.178-1.64 7.173 7.173 0 0 1 2.695-.752v5.351c0 .925-.332 1.719-.996 2.383-.664.664-1.458.996-2.383.996zM10 7.75c-.339 0-.632-.124-.879-.371A1.201 1.201 0 0 1 8.75 6.5c0-.339.124-.632.371-.879a1.201 1.201 0 0 1 1.172-.332c.091.026.182.059.273.098a.639.639 0 0 1 .069.039.32.32 0 0 1 .049.039c.169.104.306.247.41.43.104.182.156.384.156.605 0 .339-.124.632-.371.879s-.54.371-.879.371zm0 10.625a.6.6 0 0 1-.44-.186.6.6 0 0 1-.185-.439V8.902c.104.026.208.05.313.069a1.692 1.692 0 0 0 .624 0c.105-.02.209-.043.313-.069v8.848a.6.6 0 0 1-.186.44.6.6 0 0 1-.439.185zm-4.375 0c-.69 0-1.28-.244-1.768-.732a2.409 2.409 0 0 1-.732-1.768c0-.69.244-1.28.732-1.768a2.409 2.409 0 0 1 1.768-.732h2.5v2.5c0 .69-.244 1.28-.732 1.768a2.409 2.409 0 0 1-1.768.732zm8.75 0c-.69 0-1.28-.244-1.768-.732a2.409 2.409 0 0 1-.732-1.768v-2.5h2.5c.69 0 1.28.244 1.768.732.488.489.732 1.078.732 1.768s-.244 1.28-.732 1.768a2.409 2.409 0 0 1-1.768.732z"/>
</svg>
