<svg xmlns="http://www.w3.org/2000/svg" width="20" height="21" viewBox="0 0 20 21">
    <path fill-rule="nonzero" d="M13.75 20.25a.6.6 0 0 0 .44-.186.6.6 0 0 0 .185-.439.6.6 0 0 0-.186-.44.6.6 0 0 0-.439-.185h-3.125v-2.5H15a4.391 4.391 0 0 0 3.096-1.28 4.391 4.391 0 0 0 1.279-3.095c0-.898-.244-1.709-.732-2.432a4.325 4.325 0 0 0-1.924-1.591 3.019 3.019 0 0 0 .156-.977 3.01 3.01 0 0 0-.918-2.207A3.01 3.01 0 0 0 13.75 4c0-1.029-.368-1.91-1.104-2.646C11.911.618 11.03.25 10 .25S8.09.618 7.354 1.354C6.618 2.089 6.25 2.97 6.25 4a3.01 3.01 0 0 0-2.207.918 3.01 3.01 0 0 0-.918 2.207 3.148 3.148 0 0 0 .156.977 4.325 4.325 0 0 0-1.924 1.591 4.245 4.245 0 0 0-.732 2.432 4.391 4.391 0 0 0 1.28 3.096A4.391 4.391 0 0 0 5 16.5h4.375V19H6.25a.6.6 0 0 0-.44.186.6.6 0 0 0-.185.439.6.6 0 0 0 .186.44.6.6 0 0 0 .439.185h7.5zm-4.375-5H5a3.01 3.01 0 0 1-2.207-.918 3.01 3.01 0 0 1-.918-2.207c0-.73.225-1.377.674-1.943a3.068 3.068 0 0 1 1.748-1.104.472.472 0 0 0 .254-.127.708.708 0 0 0 .176-.244.633.633 0 0 0 .048-.293.461.461 0 0 0-.107-.273 2.321 2.321 0 0 1-.215-.489 1.783 1.783 0 0 1-.078-.527c0-.52.182-.964.547-1.328A1.808 1.808 0 0 1 6.25 5.25h.684a.622.622 0 0 0 .488-.234.461.461 0 0 0 .127-.235.773.773 0 0 0 .01-.273 1.332 1.332 0 0 1-.05-.264A3.186 3.186 0 0 1 7.5 4c0-.69.244-1.28.732-1.768A2.409 2.409 0 0 1 10 1.5c.69 0 1.28.244 1.768.732.488.489.732 1.078.732 1.768 0 .078-.003.16-.01.244a1.332 1.332 0 0 1-.049.264.773.773 0 0 0 .01.273c.02.091.062.17.127.235a.641.641 0 0 0 .488.234h.684c.52 0 .964.182 1.328.547.365.364.547.807.547 1.328 0 .182-.026.358-.078.527-.052.17-.124.332-.215.489a.461.461 0 0 0-.107.273.633.633 0 0 0 .048.293c.04.091.098.173.176.244a.472.472 0 0 0 .254.127c.716.17 1.299.537 1.748 1.104.45.566.674 1.214.674 1.943a3.01 3.01 0 0 1-.918 2.207A3.01 3.01 0 0 1 15 15.25h-4.375v-1.621l2.95-2.93a.652.652 0 0 0 .175-.449.652.652 0 0 0-.176-.45.652.652 0 0 0-.449-.175.652.652 0 0 0-.45.176l-2.05 2.07V7.125a.6.6 0 0 0-.186-.44A.6.6 0 0 0 10 6.5a.6.6 0 0 0-.44.186.6.6 0 0 0-.185.439v4.746l-2.05-2.07a.652.652 0 0 0-.45-.176.652.652 0 0 0-.45.176.652.652 0 0 0-.175.449c0 .17.059.319.176.45l2.949 2.929v1.621z"/>
</svg>
