<svg xmlns="http://www.w3.org/2000/svg" width="21" height="21" viewBox="0 0 21 21">
    <path fill-rule="nonzero" d="M10 2.75a.608.608 0 0 0 .45-.176.608.608 0 0 0 .175-.449V.875a.608.608 0 0 0-.176-.45A.608.608 0 0 0 10 .25a.608.608 0 0 0-.45.176.608.608 0 0 0-.175.449v1.25c0 .182.059.332.176.45A.608.608 0 0 0 10 2.75zm5.742 2.383c.065 0 .14-.016.225-.049a.639.639 0 0 0 .224-.146l.88-.88a.584.584 0 0 0 .175-.43.652.652 0 0 0-.176-.448.652.652 0 0 0-.449-.176.584.584 0 0 0-.43.176l-.878.879a.607.607 0 0 0-.196.439c0 .163.065.31.195.44.066.065.14.113.225.146a.607.607 0 0 0 .205.049zm-11.484 0c.052 0 .12-.016.205-.049a.639.639 0 0 0 .224-.146.607.607 0 0 0 .196-.44.607.607 0 0 0-.196-.44L3.81 3.18a.584.584 0 0 0-.43-.176.652.652 0 0 0-.45.176.652.652 0 0 0-.175.449c0 .17.058.312.176.43l.879.878c.065.066.14.114.224.147.085.033.16.049.225.049zM15.996 20.25c.56 0 1.087-.107 1.582-.322a4.249 4.249 0 0 0 1.299-.87c.371-.364.66-.794.87-1.288a4.035 4.035 0 0 0 .312-1.582 3.877 3.877 0 0 0-.352-1.543 4.251 4.251 0 0 0-.889-1.27 4.249 4.249 0 0 0-1.298-.87 3.886 3.886 0 0 0-1.305-.312l-.277-.01c.09-.312.166-.628.224-.947a6.053 6.053 0 0 0-.4-3.408 6.302 6.302 0 0 0-3.33-3.33A6.019 6.019 0 0 0 10 4c-.86 0-1.667.163-2.422.488a6.302 6.302 0 0 0-3.33 3.33 6.019 6.019 0 0 0-.41 3.418c.058.32.133.635.224.948h-.058c-.547 0-1.065.107-1.553.322a4.04 4.04 0 0 0-1.27.869 4.285 4.285 0 0 0-.859 1.27A3.745 3.745 0 0 0 0 16.188c0 .56.107 1.087.322 1.582.215.494.505.924.87 1.289.364.364.794.654 1.288.869a3.929 3.929 0 0 0 1.583.322h11.933zm-1.68-7.695a5.353 5.353 0 0 0-1.933-2.12 5.12 5.12 0 0 0-2.813-.81c-.885 0-1.702.202-2.45.605a5.716 5.716 0 0 0-1.866 1.582 14.04 14.04 0 0 1-.176-.751A4.029 4.029 0 0 1 5 10.25c0-.69.13-1.338.39-1.943A5.05 5.05 0 0 1 8.058 5.64 4.866 4.866 0 0 1 10 5.25c.69 0 1.338.13 1.943.39a5.05 5.05 0 0 1 2.666 2.667c.26.605.391 1.253.391 1.943 0 .378-.046.762-.137 1.152a3.99 3.99 0 0 1-.43 1.094.13.13 0 0 0-.078.03l-.039.029zm5.059-1.68a.608.608 0 0 0 .45-.176.608.608 0 0 0 .175-.449.608.608 0 0 0-.176-.45.608.608 0 0 0-.449-.175h-1.25a.608.608 0 0 0-.45.176.608.608 0 0 0-.175.449c0 .182.059.332.176.45a.608.608 0 0 0 .449.175h1.25zm-17.5 0a.608.608 0 0 0 .45-.176.608.608 0 0 0 .175-.449.608.608 0 0 0-.176-.45.608.608 0 0 0-.449-.175H.625a.608.608 0 0 0-.45.176.608.608 0 0 0-.175.449c0 .182.059.332.176.45a.608.608 0 0 0 .449.175h1.25zM15.938 19H4.062a2.712 2.712 0 0 1-1.992-.82 2.712 2.712 0 0 1-.82-1.992c0-.782.273-1.446.82-1.993a2.712 2.712 0 0 1 1.993-.82 2.74 2.74 0 0 1 .996.195.752.752 0 0 0 .478 0 .528.528 0 0 0 .342-.312c.312-.755.81-1.351 1.494-1.787a4.012 4.012 0 0 1 2.197-.655c.873 0 1.664.254 2.373.762a3.708 3.708 0 0 1 1.436 1.992.467.467 0 0 0 .137.225.843.843 0 0 0 .234.146c.091.026.186.03.283.01.098-.02.192-.042.283-.068.248-.156.502-.28.762-.371.26-.091.547-.137.86-.137.78 0 1.445.273 1.992.82.547.547.82 1.211.82 1.992 0 .782-.273 1.446-.82 1.993-.547.547-1.211.82-1.992.82z"/>
</svg>
