<svg xmlns="http://www.w3.org/2000/svg" width="91" height="20" viewBox="0 0 91 20">
    <g fill="none" fill-rule="evenodd">
        <path fill="#04BF7B" d="M0 0v19.999h12.323v-1.801H1.913V10.97h8.582V9.05H1.913V1.801h10.41V0zM24.329 14.322c.104 0 .2.042.284.127l.745.813a6.008 6.008 0 0 1-2.092 1.558c-.82.372-1.808.559-2.964.559-1.012 0-1.93-.175-2.753-.525a6.028 6.028 0 0 1-2.107-1.47c-.581-.63-1.032-1.386-1.352-2.268-.32-.881-.48-1.851-.48-2.91 0-1.058.171-2.028.514-2.91a6.643 6.643 0 0 1 1.446-2.273 6.464 6.464 0 0 1 2.229-1.474c.865-.35 1.82-.524 2.865-.524 1.033 0 1.923.16 2.67.48.748.32 1.413.754 1.994 1.303l-.617.872a.676.676 0 0 1-.157.161.432.432 0 0 1-.255.064.494.494 0 0 1-.269-.093 13.667 13.667 0 0 1-.338-.23 7.603 7.603 0 0 0-.46-.294 4.07 4.07 0 0 0-.628-.294 5.21 5.21 0 0 0-.842-.23 5.886 5.886 0 0 0-1.107-.093c-.752 0-1.44.129-2.063.387A4.62 4.62 0 0 0 16.98 6.16a5.014 5.014 0 0 0-1.053 1.744c-.251.686-.377 1.453-.377 2.303 0 .875.126 1.655.377 2.341.251.686.595 1.266 1.029 1.74.434.473.949.834 1.543 1.082a4.931 4.931 0 0 0 1.92.372c.419 0 .794-.024 1.128-.073a4.63 4.63 0 0 0 .925-.23 3.9 3.9 0 0 0 .794-.397c.245-.16.491-.351.74-.573.11-.098.218-.147.323-.147M38.947 10.207c0-.863-.117-1.637-.352-2.323-.235-.686-.569-1.265-1-1.739a4.342 4.342 0 0 0-1.567-1.092c-.614-.255-1.3-.382-2.058-.382-.751 0-1.434.127-2.048.382a4.389 4.389 0 0 0-1.572 1.092c-.435.474-.77 1.053-1.005 1.74-.235.685-.352 1.46-.352 2.322 0 .862.117 1.634.352 2.317.236.683.57 1.26 1.005 1.734.434.474.958.836 1.572 1.087.614.252 1.297.378 2.048.378.758 0 1.444-.126 2.058-.378a4.29 4.29 0 0 0 1.567-1.087c.431-.474.765-1.051 1-1.734s.352-1.455.352-2.317m1.95 0c0 1.051-.166 2.016-.5 2.895a6.63 6.63 0 0 1-1.41 2.268 6.303 6.303 0 0 1-2.19 1.474c-.853.35-1.795.525-2.827.525s-1.973-.175-2.822-.525a6.312 6.312 0 0 1-2.185-1.474 6.627 6.627 0 0 1-1.41-2.268c-.334-.879-.5-1.844-.5-2.895 0-1.052.166-2.017.5-2.896a6.679 6.679 0 0 1 1.41-2.273 6.34 6.34 0 0 1 2.185-1.484c.85-.353 1.79-.53 2.822-.53s1.974.177 2.827.53a6.33 6.33 0 0 1 2.19 1.484 6.682 6.682 0 0 1 1.41 2.273c.334.879.5 1.844.5 2.896"/>
        <path fill="#004284" d="M49.112 15.713c.58 0 1.1-.098 1.558-.294.457-.196.844-.47 1.16-.823.317-.353.56-.774.726-1.264.166-.49.25-1.029.25-1.617V3.181h1.89v8.534a6.4 6.4 0 0 1-.387 2.254 5.23 5.23 0 0 1-1.107 1.798 5.063 5.063 0 0 1-1.759 1.19c-.692.288-1.469.431-2.331.431-.863 0-1.64-.143-2.332-.43a5.112 5.112 0 0 1-1.764-1.191 5.19 5.19 0 0 1-1.112-1.798 6.4 6.4 0 0 1-.387-2.254V3.181h1.89v8.524a5 5 0 0 0 .25 1.617c.167.49.41.912.726 1.264a3.31 3.31 0 0 0 1.166.828c.46.2.981.299 1.563.299M60.046 9.981h1.99c.554 0 1.043-.067 1.464-.2a2.975 2.975 0 0 0 1.058-.57c.284-.244.498-.536.642-.876.143-.34.215-.715.215-1.127 0-.836-.276-1.466-.828-1.89-.552-.425-1.373-.638-2.464-.638h-2.077v5.301zm0 1.382v5.859h-1.89V3.182h3.967c.889 0 1.656.09 2.303.269.647.18 1.18.44 1.602.779.42.34.733.75.935 1.23a4.11 4.11 0 0 1 .304 1.611c0 .497-.078.96-.235 1.391a3.67 3.67 0 0 1-.68 1.161c-.298.343-.66.636-1.089.877a5.377 5.377 0 0 1-1.455.55c.236.136.445.336.628.597l4.095 5.575h-1.685c-.347 0-.601-.134-.764-.402l-3.645-5.016a1.059 1.059 0 0 0-.363-.338c-.13-.069-.327-.103-.588-.103h-1.44zM78.175 5.376a.76.76 0 0 1-.187.22.414.414 0 0 1-.254.074c-.111 0-.24-.055-.387-.167a6.175 6.175 0 0 0-.559-.367 4.533 4.533 0 0 0-.813-.368c-.317-.11-.7-.166-1.151-.166-.425 0-.8.057-1.127.172-.327.114-.6.269-.818.465a1.912 1.912 0 0 0-.495.69c-.111.265-.167.551-.167.858 0 .392.097.717.29.975.192.258.447.478.764.661.317.183.676.341 1.078.476.401.134.813.272 1.234.416.421.144.833.305 1.234.485.402.18.761.406 1.078.68.317.275.572.612.764 1.01.193.398.29.888.29 1.47 0 .614-.105 1.19-.314 1.73a3.987 3.987 0 0 1-.916 1.405 4.287 4.287 0 0 1-1.48.94c-.584.23-1.249.344-1.993.344-.908 0-1.736-.165-2.484-.495a5.824 5.824 0 0 1-1.916-1.338l.549-.9a.717.717 0 0 1 .191-.182.448.448 0 0 1 .25-.074c.137 0 .294.074.47.22.177.148.397.31.662.486.264.176.584.338.96.485.375.146.834.22 1.377.22.45 0 .852-.062 1.205-.186.352-.124.651-.299.896-.524a2.27 2.27 0 0 0 .563-.809 2.7 2.7 0 0 0 .197-1.048c0-.425-.097-.772-.29-1.043a2.398 2.398 0 0 0-.76-.682 5.313 5.313 0 0 0-1.072-.465l-1.234-.392c-.422-.134-.833-.289-1.235-.465a4.001 4.001 0 0 1-1.073-.686 3.145 3.145 0 0 1-.76-1.053c-.192-.422-.288-.942-.288-1.563 0-.496.096-.977.289-1.44.192-.464.472-.876.837-1.235.366-.36.819-.647 1.358-.862.538-.216 1.157-.324 1.856-.324.784 0 1.5.125 2.146.373a4.947 4.947 0 0 1 1.695 1.078l-.46.901zM81.773 3.181v14.04h8.652v-1.547h-6.742v-4.792h5.458V9.393h-5.458V4.73h6.742V3.18z"/>
    </g>
</svg>
